<?xml version="1.0" encoding="UTF-8"?>
<svg width="135.21mm" height="135.21mm" version="1.1" viewBox="0 0 135.21 135.21" xmlns="http://www.w3.org/2000/svg">
 <g transform="translate(303.46 -102.42)">
  <path d="m-242.03 237.46c-13.005-1.3552-24.501-5.8274-34.784-13.532-3.2428-2.4296-9.0234-8.0419-11.68-11.34-7.7832-9.6618-12.7-21.03-14.471-33.456-0.66188-4.6454-0.66386-13.742-4e-3 -18.256 1.1181-7.6478 3.0501-13.906 6.3714-20.638 3.7734-7.648 7.5198-12.795 13.677-18.79 5.6641-5.5151 10.556-8.9364 17.825-12.465 9.359-4.5439 18.224-6.5431 29.104-6.5636 6.6491-0.0125 10.462 0.42002 16.272 1.8458 12.574 3.0858 23.194 9.2049 32.415 18.678 10.004 10.277 16.19 22.74 18.431 37.139 0.76905 4.9409 0.83048 14.274 0.1254 19.05-1.8665 12.643-6.804 24.018-14.586 33.602-2.6055 3.2088-8.4186 8.832-11.575 11.197-9.4796 7.1026-20.045 11.486-31.689 13.148-3.6008 0.51385-12.131 0.72393-15.431 0.38004zm12.684-30.033c0.40141-0.30003 0.97533-0.8742 1.2754-1.2759 0.53187-0.71216 0.54734-1.0672 0.61866-14.198l0.0731-13.468 13.468-0.0731c13.131-0.0713 13.486-0.0868 14.198-0.61866 1.8031-1.3466 1.8215-1.4252 1.8215-7.7889s-0.0184-6.4422-1.8215-7.7889c-0.71216-0.53187-1.0672-0.54734-14.198-0.61866l-13.468-0.0731-0.0731-13.468c-0.0713-13.131-0.0868-13.486-0.61866-14.198-1.3466-1.8031-1.4252-1.8214-7.7889-1.8214s-6.4422 0.0184-7.7889 1.8214c-0.53187 0.71217-0.54734 1.0672-0.61866 14.198l-0.0731 13.468-13.468 0.0731c-13.131 0.0713-13.486 0.0868-14.198 0.61866-1.8031 1.3466-1.8215 1.4252-1.8215 7.7889s0.0184 6.4422 1.8215 7.7889c0.71218 0.53188 1.0672 0.54734 14.205 0.61868l13.475 0.0732v13.073c0 8.6174 0.0962 13.326 0.28221 13.817 0.15522 0.40965 0.54217 1.0279 0.8599 1.3739 1.1469 1.2489 1.7745 1.3546 7.6367 1.2866 5.0585-0.0587 5.5266-0.10469 6.2014-0.60903z" fill="#0b012e" stroke-width=".26458"/>
 </g>
</svg>
