<?xml version="1.0" encoding="UTF-8"?>
<svg width="90.546mm" height="117.4mm" version="1.1" viewBox="0 0 90.546 117.4" xmlns="http://www.w3.org/2000/svg">
 <g transform="translate(216.84 -68.941)">
  <path d="m-196.73 185.98c-2.9384-0.79654-5.3446-2.8889-6.3199-5.4956-0.40651-1.0865-1.3778-10.136-4.7754-44.489-2.3458-23.719-4.2633-43.393-4.261-43.72l4e-3 -0.59531h80.962l3e-3 0.59531c2e-3 0.32742-1.916 20.002-4.2619 43.722-3.5326 35.72-4.3585 43.377-4.8088 44.58-0.74539 1.9925-2.9667 4.1974-5.0898 5.0522l-1.5856 0.63835-24.209 0.0522c-20.695 0.0446-24.42-5e-3 -25.658-0.3406zm8.5925-18.071c1.2877-0.59431 2.0872-1.4294 2.6438-2.7614 0.39758-0.95155 0.29762-2.4802-1.8684-28.571-1.8363-22.12-2.381-27.781-2.7572-28.653-0.7178-1.6643-2.0963-2.5737-4.094-2.701-1.557-0.0991-1.7016-0.0567-2.6535 0.7791-1.2738 1.1184-1.7222 2.1938-1.7198 4.1249 1e-3 0.84142 1.0098 13.595 2.2416 28.342 2.0271 24.266 2.2912 26.895 2.7809 27.688 0.62438 1.0103 1.4138 1.5841 2.6801 1.9483 1.2852 0.36961 1.5661 0.34965 2.7465-0.19512zm19.027-0.24313c0.44912-0.2623 1.0826-0.94653 1.4077-1.5205l0.59111-1.0436 4e-3 -28.293c4e-3 -27.757-6e-3 -28.314-0.52484-29.386-1.4694-3.0355-6.468-3.0355-7.9374 0-0.51905 1.0722-0.52918 1.6335-0.52918 29.331 0 27.358 0.0159 28.269 0.50983 29.237 0.61552 1.2065 1.0306 1.5723 2.3319 2.0549 1.2046 0.44677 3.0162 0.2812 4.1466-0.37899zm17.796 0.0425c0.51033-0.24217 1.2175-0.87792 1.5714-1.4128 0.62783-0.94872 0.70108-1.6619 2.999-29.201 1.5531-18.612 2.2793-28.494 2.1318-29.008-0.27364-0.95413-0.83439-1.7799-1.5481-2.2798-0.86633-0.60679-3.0126-0.91126-4.1704-0.59159-1.344 0.3711-2.9267 1.9682-3.1179 3.1463-0.39635 2.4426-4.6719 56.055-4.5304 56.809 0.21021 1.1205 1.5468 2.6371 2.6111 2.9627 1.0669 0.3264 2.8676 0.1375 4.0534-0.42522zm-65.53-87.553c0-1.2452 0.13044-2.7821 0.28986-3.4152 0.3539-1.4055 1.5498-2.6855 2.8454-3.0453 0.59557-0.16542 6.2526-0.26883 14.756-0.26974l13.791-0.0015 0.16287-1.0185c0.2115-1.3227 1.052-2.3665 2.3975-2.9776 0.98904-0.4492 1.9074-0.49012 11.001-0.49012s10.012 0.04091 11.001 0.49012c1.3429 0.6099 2.1859 1.6545 2.3961 2.969l0.16149 1.0099 28.642 0.14956 0.96402 0.59948c1.4622 0.90928 1.9061 2.0941 2.0307 5.4198l0.10653 2.8443h-90.546z" stroke-width=".26458"/>
 </g>
</svg>
