<?xml version="1.0" encoding="UTF-8"?>
<svg width="72.034mm" height="68.671mm" version="1.1" viewBox="0 0 72.034 68.671" xmlns="http://www.w3.org/2000/svg">
 <g transform="translate(231.05 -44.194)">
  <path d="m-203.03 112.7c-2.8561-0.43796-5.2411-1.1109-8.3787-2.3642-4.6559-1.8597-7.0424-3.3957-10.292-6.6238-3.7744-3.7495-5.4076-6.3517-7.4728-11.906-1.5712-4.2262-1.9056-6.3433-1.8801-11.906 0.02-4.3722 0.0945-5.1632 0.69762-7.4083 0.62221-2.3162 1.7338-5.3086 1.376-3.7042-0.11113 0.49832 1.7549-2.9982 3.0202-5.6592 0.0615-0.1294-0.041-0.14076-0.22792-0.0253-0.22446 0.13872-0.27481 0.10486-0.14833-0.0998 0.10529-0.17038 0.28481-0.25208 0.39892-0.18156 0.11411 0.0705 0.60451-0.43355 1.0898-1.1202 1.3614-1.9263 5.3404-5.9123 5.7463-5.7566 0.19562 0.0751 0.29277 0.0347 0.21588-0.0897-0.21467-0.34733 0.82768-1.1703 1.1948-0.94341 0.20099 0.12422 0.25384 0.0886 0.14053-0.0948-0.22306-0.36093 1.0244-1.2247 1.4177-0.98168 0.15553 0.0961 0.25006 0.032 0.21008-0.14256-0.04-0.17453 0.0927-0.37742 0.29485-0.45087 0.24654-0.0896 0.29842-0.0217 0.15756 0.20625-0.13873 0.22446-0.10486 0.27481 0.0998 0.14833 0.17038-0.1053 0.24365-0.29845 0.16283-0.42922-0.21686-0.35088 3.2289-2.0048 6.3584-3.052 6.7965-2.2742 14.657-2.1832 21.089 0.24414 3.6555 1.3795 7.4885 3.6002 9.7667 5.6584l1.0111 0.91343 5.9659-4.8449-2.7781 2.7145c-1.528 1.493-2.2789 2.3291-1.6688 1.858 0.61013-0.47108 2.7411-2.489 4.7354-4.4843 5.2826-5.2851 3.7946-3.2957-2.1182 2.8319-1.322 1.37-1.9274 2.1228-1.3453 1.6729 1.8066-1.3964 6.4915-6.3837 9.7521-10.382 0.4154-0.50932 0.68679-0.71768 0.6031-0.46302-0.0837 0.25466-0.0568 0.46302 0.0599 0.46302 0.45965 0 0.0933 1.1451-0.51249 1.6017-0.35322 0.26628-0.65896 0.69943-0.67943 0.96256-0.0205 0.26314-0.11889 0.71656-0.21872 1.0076-0.0998 0.29104 0.51223-0.18956 1.3601-1.068 1.9897-2.0614 1.6938-1.6626-2.5594 3.4492-4.5249 5.4384-4.7331 5.7285-2.2782 3.175 3.164-3.2912 6.6522-7.3693 8.167-9.5483 1.5367-2.2104 2.0652-2.2567 0.65323-0.0571-1.7142 2.6704-4.2796 5.6563-8.8243 10.271l-4.5641 4.6344 1.1968 1.8478c2.9904 4.6171 4.7295 9.381 5.2624 14.416 0.25848 2.4418-0.084 1.8364-0.54011-0.95491-0.21144-1.2938-0.63275-3.2454-0.93625-4.3368-1.1169-4.0164-4.9317-10.937-5.6844-10.313-0.53128 0.44091-0.3167 1.3505 0.68669 2.911 1.8238 2.8364 1.9108 3.034 1.9774 4.49l0.0664 1.4538-0.76354-1.6821c-0.41995-0.92513-0.68619-1.8175-0.59163-1.983 0.0946-0.16552 0.0783-0.21645-0.0362-0.11319-0.11447 0.10327-0.64881-0.49204-1.1874-1.3229-1.7035-2.628-1.3212-2.7317-5.8937 1.5987-2.2222 2.1046-4.4042 4.1709-4.8488 4.5919-1.1503 1.0891-0.29702 0.46735 1.8668-1.3602 1.0186-0.86038 1.5548-1.2309 1.1915-0.82342-0.36332 0.40749-2.4232 2.2498-4.5775 4.0939l-3.9169 3.3531 1.7994 1.7008c1.7248 1.6304 1.5026 1.5806-0.44961-0.10077-0.50932-0.43865 0.12946 0.28816 1.4195 1.6151s2.3219 2.4958 2.293 2.5974c-0.0289 0.10156 0.036 0.26403 0.14426 0.36104 0.10822 0.097 0.10776-0.0021-1e-3 -0.22048-0.10878-0.21828 2.273 2.0898 5.2928 5.129 5.1248 5.1578 5.5155 5.4926 5.8643 5.0271 0.20552-0.27432 1.069-1.9024 1.9188-3.6179 0.84985-1.7155 1.6258-2.9887 1.7244-2.8292 0.0985 0.15944 0.10899 0.56949 0.0232 0.91121-0.1301 0.51838-0.0706 0.59902 0.3589 0.48669 0.38215-0.0999 0.59194-0.51969 0.81392-1.6286 0.66037-3.2987 1.2713-5.4695 1.314-4.6689 0.0233 0.43656 0.10263 0.64418 0.17633 0.46137 0.21241-0.52684 0.61542-0.10233 0.64435 0.67873l0.0264 0.71198 0.1894-0.66145 0.18941-0.66146 0.14913 0.75231c0.082 0.41377 0.0504 1.6325-0.0702 2.7084-0.40546 3.6155-1.3404 6.5613-3.3469 10.546l-0.93447 1.8556 0.71011 1.2632c0.39058 0.69478 0.58419 1.2632 0.43028 1.2632-0.15392 0-0.27985-0.0959-0.27985-0.21318 0-0.11725-0.27519-0.58618-0.61153-1.0421l-0.61147-0.82887-1.4914 1.902c-1.6025 2.0437-5.2582 5.3971-7.849 7.2002-3.1963 2.2244-7.9502 4.1358-12.504 5.0275-2.636 0.51617-8.1961 0.72038-10.402 0.38206zm9.294-6.3183c4.5747-0.94412 8.7194-3.0762 13.316-6.8502 1.085-0.89076 2.0174-1.5749 2.072-1.5203 0.0546 0.0546-0.0371 0.37733-0.20374 0.71722-0.37514 0.76515 1.0218-0.76715 2.0226-2.2186l0.6788-0.98444-0.62535-0.74286c-2.2697-2.6962-3.3853-3.894-4.1972-4.5067-0.50932-0.3843 0.0686 0.36825 1.2843 1.6723s2.4474 2.7283 2.7371 3.1648c0.28974 0.43656-0.72987-0.51594-2.2658-2.1167-1.5359-1.6007-2.7974-2.8066-2.8032-2.6796-6e-3 0.12695 0.61443 0.80837 1.3784 1.5143 2.0854 1.9268 1.259 1.5576-1.093-0.4883-3.6221-3.1508-11.639-10.38-11.8-10.641-0.18062-0.29225-4.2184 2.624-6.5874 4.7577-0.89106 0.80255-2.6321 2.3071-3.8691 3.3434-1.2369 1.0363-3.5586 3.1737-5.1594 4.7496-3.3998 3.3471-5.5747 5.2125-7.0634 6.0581l-1.0672 0.60616 1.5517 1.2223c2.8607 2.2533 7.3577 4.2806 11.209 5.0531 2.6371 0.52893 7.6415 0.47612 10.485-0.11066zm-24.221-8.908c0.82011-0.78572 0.78266-1.8328-0.0577-1.6131-0.27085 0.0708-0.5502 0.0354-0.62077-0.0788-0.29798-0.48214 2.0058-4.1226 3.3952-5.3651 0.61104-0.54644 0.70082-0.72761 0.3606-0.72761-1.4832 0 0.044-1.4743 8.8922-8.5842 3.7574-3.0192 6.7935-5.5217 6.7469-5.5611-0.0466-0.0393-2.1723-1.8436-4.7236-4.0095-2.5514-2.1659-5.5987-4.7446-6.7718-5.7305-2.0481-1.7211-2.8729-2.7152-2.6962-3.2492 0.0772-0.2334-0.90776-1.7919-1.9668-3.1121l-0.46325-0.57744-2.4472 2.5291c-3.4734 3.5896-5.606 7.4277-6.9748 12.552-0.76786 2.8748-0.7117 9.7926 0.10418 12.832 0.65808 2.4518 2.4677 6.4532 3.7832 8.3651 0.95494 1.388 2.3414 3.012 2.5714 3.012 0.0861 0 0.47692-0.30693 0.86848-0.68206zm3.815-1.4346c0.26339-0.29104 0.41936-0.52917 0.3466-0.52917-0.0728 0-0.3478 0.23813-0.61119 0.52917-0.26339 0.29104-0.41936 0.52917-0.3466 0.52917 0.0728 0 0.3478-0.23813 0.61119-0.52917zm44.002-2.256c-0.0815-0.0815-0.2294 0.0654-0.32876 0.32632-0.14359 0.37708-0.1132 0.40747 0.14811 0.14811 0.18082-0.17948 0.26212-0.39297 0.18065-0.47443zm-39.603-0.32373c0.32911-0.41964 0.31975-0.429-0.0999-0.0999-0.44073 0.34565-0.58089 0.56292-0.36313 0.56292 0.0549 0 0.2633-0.20836 0.46302-0.46302zm35.409 0.26458c-6e-3 -0.10914-0.84702-1.0914-1.8682-2.1828l-1.8567-1.9844 1.6445 2.1828c1.475 1.9578 2.1142 2.5675 2.0803 1.9844zm-3.4281-2.2632c0-0.0442-0.44649-0.4907-0.99219-0.99218l-0.99219-0.9118 0.9118 0.99218c0.84868 0.92351 1.0726 1.1138 1.0726 0.9118zm-6.4974-3.9158c-0.86481-0.8806-2.1677-2.0886-2.8953-2.6844-0.7479-0.61244-0.1212 0.14023 1.4418 1.7316 1.5206 1.5482 2.8235 2.7562 2.8953 2.6844 0.0718-0.0718-0.57703-0.85103-1.4418-1.7316zm1.2058-3.2337c0-0.0474-0.32742-0.37481-0.7276-0.7276l-0.72761-0.64144 0.64143 0.72761c0.59952 0.68005 0.81378 0.84894 0.81378 0.64143zm-9.2927-14.252c1.2547-1.0466 3.1742-2.6897 4.2656-3.6514 1.0914-0.96166 3.4429-2.9753 5.2255-4.4748s3.2411-2.7664 3.2411-2.8154c0-0.049-0.70143-0.62888-1.5587-1.2886-2.04-1.5697-5.2915-3.3239-5.7997-3.1289-0.28542 0.10952-0.33802 0.0516-0.18218-0.20053 0.16144-0.26121 0.0996-0.30866-0.23492-0.18028-0.29387 0.11277-0.39082 0.072-0.27486-0.11568 0.1211-0.19593-0.0138-0.22864-0.41626-0.10091-0.44615 0.1416-0.54308 0.10426-0.38661-0.14891 0.1481-0.23963 0.0819-0.2892-0.22751-0.17045-0.23998 0.0921-1.3608-0.0851-2.4908-0.39382-1.7222-0.47047-2.8033-0.56239-6.6847-0.56831-4.1665-6e-3 -4.8851 0.0617-7.1752 0.67932-1.3998 0.37751-3.4421 1.1008-4.5385 1.6074l-1.9935 0.92103 2.1572 2.3135c2.4034 2.5775 8.9878 8.6133 11.386 10.437 0.85559 0.65071 1.9272 1.6308 2.3812 2.178 0.45409 0.54722 0.87061 0.99709 0.9256 0.99971 0.055 3e-3 1.1266-0.85154 2.3812-1.8981zm14.32-5.3731c0.79042-0.80036 1.3776-1.4552 1.3048-1.4552-0.0728 0-0.779 0.65485-1.5694 1.4552-0.79042 0.80037-1.3776 1.4552-1.3048 1.4552 0.0728 0 0.779-0.65484 1.5694-1.4552zm-3.0089-2.5268c1.9852-1.6717 2.6031-2.3933 2.0167-2.355-0.28579 0.0187-4.7202 4.2204-4.4541 4.2204 0.12223 0 1.219-0.8394 2.4374-1.8653zm-35.245-4.1977c-0.0718-0.0718-1.0488 0.80554-2.1711 1.9496l-2.0406 2.0801 2.1711-1.9496c1.1941-1.0723 2.1123-2.0084 2.0406-2.0801zm36.546 0.25472c-0.72157-0.79732-4.0521-3.0229-5.9645-3.9857-3.4921-1.7581-8.8807-3.1482-10.993-2.8361-0.58588 0.0866-0.48359 0.12665 0.41002 0.1607 1.6257 0.062 5.2733 0.89873 7.6729 1.7602 2.8173 1.0115 5.1419 2.2829 7.2451 3.9628 1.8943 1.513 2.4283 1.8204 1.6298 0.938zm1.4438-1.909c-1.6541-1.4048-5.1738-3.6398-7.2234-4.5868-2.9654-1.3701-2.8119-1.1127 0.31885 0.53474 2.6179 1.3776 4.6361 2.7296 6.6016 4.4227 0.48823 0.42055 0.96448 0.68615 1.0583 0.59022 0.0939-0.0959-0.24607-0.52833-0.75539-0.96089zm8.0698-1.2786c1.1573-1.1642 2.0447-2.1167 1.972-2.1167-0.0728 0-1.0792 0.9525-2.2365 2.1167s-2.0447 2.1167-1.972 2.1167c0.0728 0 1.0792-0.9525 2.2365-2.1167zm-40.671-0.0955c1.478-0.73985 4.3744-1.7222 6.4074-2.1732 0.80036-0.17756 1.2171-0.33328 0.92604-0.34604-1.4989-0.0657-7.7021 1.9407-8.5895 2.7783-0.56483 0.53312-0.15934 0.44951 1.2561-0.25902zm20.827-1.7566c-0.29104-0.12507-0.70776-0.22739-0.92604-0.22739-0.25016 0-0.20125 0.0841 0.13229 0.22739 0.29104 0.12507 0.70776 0.22739 0.92604 0.22739 0.25016 0 0.20126-0.0841-0.13229-0.22739zm-2.6458-0.66749c-0.72761-0.18702-1.7992-0.33695-2.3812-0.33318-0.85364 6e-3 -0.75245 0.0514 0.52316 0.23718 0.86981 0.12668 1.7032 0.28135 1.8521 0.34372 0.14882 0.0624 0.50872 0.10867 0.79976 0.10287 0.29104-6e-3 -0.0661-0.16356-0.79375-0.35059zm25.135-0.39084c0.26339-0.29104 0.41936-0.52917 0.3466-0.52917-0.0728 0-0.34779 0.23813-0.61118 0.52917s-0.41936 0.52916-0.3466 0.52916c0.0728 0 0.34779-0.23812 0.61118-0.52916zm-34.065 0.0822c-0.25466-0.0666-0.67138-0.0666-0.92604 0s-0.0463 0.121 0.46302 0.121 0.71768-0.0545 0.46302-0.121zm4.8948-0.26892c-0.32742-0.0631-0.8632-0.0631-1.1906 0-0.32743 0.0631-0.0595 0.11466 0.59531 0.11466 0.65484 0 0.92273-0.0516 0.59531-0.11466zm30.229-1.1362c0.26339-0.29104 0.41936-0.52916 0.3466-0.52916-0.0728 0-0.3478 0.23812-0.61119 0.52916s-0.41935 0.52917-0.34659 0.52917c0.0728 0 0.34779-0.23813 0.61118-0.52917zm-25.604-0.15985c-0.0879-0.0879-0.31613-0.0973-0.50712-0.0209-0.21107 0.0845-0.14837 0.14716 0.15985 0.15985 0.27892 0.0115 0.43519-0.051 0.34727-0.13896zm-1.3229-0.26458c-0.0879-0.0879-0.31612-0.0973-0.50712-0.0209-0.21106 0.0845-0.14837 0.14715 0.15986 0.15985 0.27891 0.0115 0.43518-0.0511 0.34726-0.13897zm27.985-0.89848c0.26339-0.29105 0.41936-0.52917 0.3466-0.52917-0.0728 0-0.34779 0.23812-0.61118 0.52917-0.26339 0.29104-0.41936 0.52916-0.3466 0.52916 0.0728 0 0.34779-0.23812 0.61118-0.52916zm0.16604-1.2568c0.32911-0.41965 0.31975-0.42901-0.0999-0.0999-0.25466 0.19972-0.46302 0.40808-0.46302 0.46302 0 0.21776 0.21727 0.0776 0.56291-0.36313zm1.0325-1.4038c0.40206-0.75125 0.12782-0.62867-0.40177 0.1796-0.25011 0.38172-0.32398 0.61321-0.16415 0.51443 0.15984-0.0988 0.4145-0.41109 0.56592-0.69403zm-64.544 21.049c0-0.14552 0.22815-0.6813 0.50699-1.1906 0.27884-0.50932 0.50699-0.80698 0.50699-0.66146 0 0.14553-0.22815 0.68131-0.50699 1.1906s-0.50699 0.80698-0.50699 0.66146zm58.308-0.1499c-0.0959-0.1552-0.11766-0.33893-0.0483-0.40828 0.0693-0.0694 0.1966 0.0576 0.28277 0.28218 0.17891 0.46623 0.0264 0.54824-0.23447 0.1261zm-1.681-3.0912c-0.5999-0.98226-1.2828-2.0538-1.5176-2.3812-0.23481-0.32742-0.35859-0.59531-0.27507-0.59531 0.18459 0 1.4172 1.7934 2.4096 3.5057 1.1116 1.918 0.62025 1.4966-0.61692-0.52917zm-54.929-0.33073c0.22576-0.43656 0.47-0.79375 0.54276-0.79375 0.0728 0-0.0524 0.35719-0.27817 0.79375-0.22576 0.43657-0.47 0.79375-0.54276 0.79375-0.0728 0 0.0524-0.35718 0.27817-0.79375z" stroke-width=".26458"/>
 </g>
</svg>
