<?xml version="1.0" encoding="UTF-8"?>
<svg width="40.505mm" height="32.785mm" version="1.1" viewBox="0 0 40.505 32.785" xmlns="http://www.w3.org/2000/svg">
 <g transform="translate(157.25 -30.757)">
  <path d="m-138.48 63.147c-1.4028-0.76115-1.9596-3.0044-1.1395-4.5904 0.40974-0.79234 1.8266-1.61 2.7898-1.61 0.98862 0 2.3844 0.82601 2.8203 1.6691 0.538 1.0404 0.50884 2.6121-0.0647 3.4874-0.90214 1.3768-2.9139 1.8534-4.406 1.0439zm-2.703-8.0364c-1.4453-1.4713-1.4393-1.5062 0.43204-2.5321l0.70892-0.38864 0.17418 1.394c0.0958 0.76672 0.13396 1.7241 0.0848 2.1275l-0.0893 0.73347zm7.279 0.23854c8e-3 -0.64937 0.0977-1.6315 0.19843-2.1825l0.18319-1.0018 1.1245 0.73019c0.61847 0.4016 1.1245 0.79735 1.1245 0.87945s-0.59531 0.73562-1.3229 1.4523l-1.3229 1.303 0.0152-1.1807zm-4.3546-2.0406c-0.61138-6.262-1.2111-13.654-1.2138-14.961-3e-3 -1.2707 0.1063-1.6428 0.63555-2.172 1.5378-1.5378 4.0706-0.95529 4.607 1.0596 0.1287 0.48347-0.0744 3.9483-0.51955 8.8635-0.40197 4.4384-0.73682 8.2782-0.74412 8.5328-0.0108 0.37579-0.25607 0.46302-1.302 0.46302h-1.2887zm-7.922-3.4633-1.2612-1.2805 0.87433-0.66259c1.5424-1.1689 3.0696-2.0498 4.4877-2.5886 0.76021-0.28886 1.4033-0.49826 1.4291-0.46533 0.0258 0.0329 0.10756 0.85205 0.18169 1.8203l0.13479 1.7604-1.0894 0.48854c-0.59918 0.2687-1.5976 0.8755-2.2187 1.3484s-1.1625 0.85989-1.2031 0.85989c-0.0406 0-0.64137-0.57622-1.3351-1.2805zm16.51 0.48002c-0.50118-0.42844-1.5503-1.0439-2.3315-1.3676-1.1869-0.49196-1.3964-0.67732-1.2752-1.1285 0.0798-0.29691 0.14666-1.1134 0.14865-1.8144 3e-3 -1.1939 0.0413-1.2641 0.59892-1.1088 1.3913 0.38753 4.8893 2.2765 5.6085 3.0287l0.77987 0.81563-1.1657 1.1877c-0.64112 0.65326-1.2302 1.1829-1.309 1.177-0.0788-6e-3 -0.5534-0.36129-1.0546-0.78973zm-21.523-5.2284-1.2474-1.2664 1.125-0.93179c2.5891-2.1444 4.7089-3.3454 7.3615-4.1708 3.1703-0.9865 2.8356-1.0986 2.9357 0.98329l0.0883 1.8361-1.4552 0.45578c-2.1262 0.66593-4.2681 1.8086-5.9346 3.166-0.80643 0.65685-1.5022 1.1943-1.5461 1.1943s-0.64116-0.56989-1.3272-1.2664zm26.006 0.19649c-1.3661-1.2018-3.998-2.6456-6.0193-3.3022l-1.3891-0.45124 4e-3 -1.2263c2e-3 -0.67448 0.0717-1.4802 0.15503-1.7906 0.14779-0.55076 0.18728-0.55508 1.65-0.18042 2.2686 0.58107 5.5495 2.2605 7.6941 3.9385l1.921 1.5031-1.2702 1.2896c-0.69859 0.70925-1.3342 1.2845-1.4124 1.2783-0.0782-6e-3 -0.67801-0.48259-1.3329-1.0586zm-30.793-4.9845-1.2725-1.2919 1.6793-1.3986c10.475-8.7241 25.382-9.1739 36.104-1.0895 3.2927 2.4826 3.2367 2.3587 1.7333 3.8395l-1.27 1.2509-1.1722-1.0308c-3.2777-2.8825-7.2181-4.7864-12.152-5.8716-1.2369-0.27205-2.755-0.64497-3.3734-0.8287-0.90981-0.27028-1.3392-0.26897-2.249 7e-3 -0.61846 0.18751-2.1405 0.56113-3.3823 0.83027-4.7419 1.0277-8.8623 3.0064-11.845 5.6881-0.72643 0.65312-1.3673 1.1875-1.4241 1.1875-0.0568 0-0.67598-0.58136-1.3758-1.2919z" stroke-width=".26458"/>
 </g>
</svg>
