<?xml version="1.0" encoding="UTF-8"?>
<svg width="69.185mm" height="79.121mm" version="1.1" viewBox="0 0 69.185 79.121" xmlns="http://www.w3.org/2000/svg">
 <g transform="translate(259.11 -29.898)">
  <path d="m-231.47 108.67c-4.2682-0.67284-9.3697-2.5419-13.162-4.8221-3.9347-2.366-8.3045-7.0592-10.348-11.114-4.0162-7.9681-5.0624-15.457-3.3296-23.832 0.15847-0.76595 0.38732-1.3313 0.50855-1.2564 0.12122 0.0749 0.16421-0.0787 0.0955-0.34137-0.19286-0.73753 2.4638-7.1961 2.96-7.1961 0.0728 0-0.22661 0.71099-0.66527 1.58-1.2247 2.4262-0.93747 2.269 0.39749-0.2175 1.25-2.3283 1.4534-2.8554 0.77473-2.0083-0.39416 0.49198-0.39916 0.48824-0.11901-0.0891 0.16085-0.33149 0.39074-0.54197 0.51088-0.46772 0.12013 0.0743 0.82323-0.67834 1.5624-1.6724 1.7216-2.3153 5.8036-6.2011 6.3099-6.0068 0.20726 0.0795 0.31243 0.0404 0.23371-0.087-0.19994-0.32351 0.55981-0.90445 0.90435-0.69151 0.1555 0.0961 0.25002 0.0387 0.21003-0.12747-0.1002-0.41653 2.8054-2.1504 5.4797-3.2699 1.2198-0.51063 3.5056-1.2595 5.0796-1.6642 2.5895-0.66582 3.2897-0.73516 7.3597-0.72881 4.8881 8e-3 6.4771 0.25919 10.825 1.714 2.432 0.81364 5.8673 2.5446 7.5631 3.8109l0.92604 0.69151 0.39687-0.59895c1.875-2.8297 5.4962-7.8165 7.6533-10.54 2.6393-3.3317 8.2963-9.2687 9.3653-9.8287 0.31693-0.16601-0.97386 1.2929-2.8684 3.2421-3.0089 3.0956-5.2629 5.7187-8.5584 9.96-1.8198 2.3421-0.49833 0.97563 2.8146-2.9104 1.8919-2.2192 3.8928-4.4516 4.4464-4.9609 0.6264-0.57629 0.43787-0.28446-0.49915 0.77269-1.4902 1.6812-2.0754 2.7651-0.89335 1.6547 0.3368-0.31641 0.72375-0.57676 0.85989-0.57857 0.13614-2e-3 0.51652-0.41852 0.84528-0.92604s0.77524-0.92276 0.99218-0.92276c0.62125 0 0.75744-0.0343 1.3205-0.33216 0.29104-0.15398-0.24474 0.54609-1.1906 1.5557-0.94588 1.0096-2.2485 2.4868-2.8948 3.2826l-1.175 1.447 1.0157-0.92604c0.76484-0.69734 0.52682-0.286-0.96373 1.6655-1.0887 1.4254-1.9794 2.7387-1.9794 2.9186 0 0.49892-0.91069 1.7794-1.1572 1.627-0.11954-0.0739-0.30351 5e-3 -0.40881 0.17544-0.11957 0.19347-0.0768 0.2389 0.11401 0.121 0.55878-0.34535 0.32007 0.14127-1.5393 3.138-1.0146 1.6352-1.9209 3.1715-2.0139 3.4139-0.11569 0.30149 0.2853 0.96203 1.2695 2.0912 4.3553 4.9968 7.1609 11.335 7.7746 17.564 0.25363 2.5745-0.0501 2.0001-0.53465-1.011-0.82075-5.1005-2.9235-10.123-5.9093-14.114-1.6266-2.1745-3.2393-3.8676-3.2393-3.401 0 0.14552 0.36025 0.60972 0.80056 1.0316 0.44792 0.42914 0.73727 0.9319 0.65689 1.1414-0.079 0.20592-0.0123 0.53268 0.14826 0.72614 0.16056 0.19346 0.20375 0.49442 0.096 0.6688-0.11635 0.18826-0.0841 0.24789 0.0795 0.1468 0.30493-0.18846 1.0318 0.53871 0.78505 0.78542-0.16145 0.16145 0.95758 2.071 1.5761 2.6895 0.19553 0.19554 0.35551 0.51103 0.35551 0.7011 0 0.19007 0.18256 0.49709 0.40569 0.68227s0.35929 0.46765 0.30258 0.62771c-0.0567 0.16006-2e-3 0.56571 0.12267 0.90145 0.14542 0.39314 0.1319 0.5524-0.038 0.44741-0.14509-0.0897-0.26607-7e-3 -0.26887 0.18331-3e-3 0.19049-0.59341-0.76197-1.3125-2.1166-1.2677-2.3881-3.2851-5.1859-4.5198-6.2683-0.33199-0.29104-0.5166-0.38034-0.41023-0.19844 0.10636 0.1819 0.0742 0.33073-0.0714 0.33073-0.38765 0-3.596 5.7754-7.5696 13.626-3.604 7.1205-7.4092 15.779-10.058 22.886-0.84056 2.2556-1.6162 4.1998-1.7236 4.3204-0.10742 0.12067-0.99353-1.2202-1.9691-2.9797-2.801-5.0517-4.387-6.8656-10.064-11.51-3.1574-2.5831-4.6174-4.2009-3.3734-3.7378 0.25466 0.0948-0.31089-0.53136-1.2568-1.3914-1.7713-1.6107-4.2101-4.4738-4.2096-4.942 1.7e-4 -0.14552 0.21317-0.23069 0.47335-0.18927 0.7784 0.12392 0.54989-0.71849-0.3892-1.4348-0.47424-0.36172-1.0645-0.96638-1.3118-1.3437-0.40507-0.61821-0.40701-0.66972-0.0197-0.5211 0.23639 0.0907 0.4298 0.0416 0.4298-0.10917 0-0.16358 0.23923-0.19818 0.59324-0.0858 0.54533 0.17308 0.56152 0.15007 0.20051-0.28492-0.36349-0.43799-0.34364-0.45822 0.26666-0.27186 2.5601 0.78173 10.077 6.791 16.783 13.416 1.4463 1.429 2.6666 2.5981 2.712 2.5981 0.0453 0 0.0824-0.23597 0.0824-0.52437 0-0.63173 1.7344-4.442 2.7602-6.0641 0.40506-0.64045 2.035-3.7718 3.6222-6.9585 1.8888-3.7924 2.9899-5.7297 3.1873-5.6077 0.18166 0.11227 0.22911 0.0691 0.11932-0.10854-0.16984-0.2748 1.271-3.491 1.564-3.491 0.0731 0-0.16777 0.62508-0.53531 1.3891-0.88433 1.8382-0.65876 1.4876 2.9179-4.5357 2.9123-4.9045 3.0268-5.153 2.5945-5.6308-0.5489-0.60652-3.2133-2.1587-3.7055-2.1587-0.19456 0-0.35374-0.10625-0.35374-0.2361 0-0.12986-0.11906-0.16252-0.26459-0.0726-0.14552 0.0899-0.26458 0.0304-0.26458-0.1323 0-0.16269-0.10832-0.22887-0.24071-0.14704-0.37124 0.22944-1.1012-0.13739-0.90499-0.45481 0.10795-0.17467 0.0127-0.21984-0.25062-0.11881-0.23363 0.0897-1.1919-0.0564-2.1294-0.32447-6.3237-1.8084-14.002-1.2149-19.872 1.5361-5.6175 2.6324-10.315 7.1841-13.086 12.679-6.1347 12.167-2.2985 26.875 8.9814 34.433 4.2939 2.8773 8.534 4.2356 13.876 4.4453 7.5989 0.29827 13.501-1.9465 20.225-7.6916 1.5894-1.3581 2.0338-1.5346 1.5986-0.63466-0.39921 0.82554 0.61979-0.35442 2.9556-3.4225 1.8121-2.3801 4.154-6.4321 4.735-8.1925 0.38828-1.1765 0.77569-1.1255 0.80161 0.10563 0.0115 0.5457 0.0812 0.84261 0.15489 0.65981 0.0737-0.18281 0.23108-0.27238 0.34974-0.19905 0.21203 0.13105 0.30017-0.19398 1.2346-4.553 0.45257-2.1113 0.4797-2.1593 0.94046-1.6647 0.26095 0.28009 0.49067 0.90119 0.51048 1.3802 0.0257 0.62138 0.0689 0.70037 0.1507 0.27564 0.18487-0.95983 0.60712-0.68328 0.60596 0.39688-2e-3 1.6625-0.73972 5.6475-1.4097 7.6129-2.3439 6.8753-6.7517 12.366-13.496 16.811-6.2869 4.1439-15.284 6.0735-22.796 4.8892zm33.419-18.803c-0.0815-0.0815-0.22941 0.0654-0.32877 0.32632-0.14358 0.37708-0.11319 0.40747 0.14812 0.14811 0.18082-0.17948 0.26211-0.39297 0.18065-0.47443zm-9.9972-30.695c0.90755-1.5334 1.5913-2.8468 1.5194-2.9187-0.0719-0.0719-0.30564 0.14094-0.51949 0.4729-0.71699 1.113-2.9022 5.2338-2.7754 5.2338 0.0689 0 0.86789-1.2546 1.7754-2.788zm-34.799-5.7332c3.082-2.1912 6.4604-3.6948 10.311-4.5887 1.5709-0.3647 1.5751-0.36812 0.2728-0.21921-4.6883 0.53609-10.618 3.6891-14.42 7.668l-1.4552 1.5228 1.7198-1.5331c0.94588-0.8432 2.5532-2.1256 3.5719-2.8499zm38.891-0.9041c0.25011-0.38172 0.32398-0.61321 0.16414-0.51443-0.30543 0.18877-0.92146 1.2085-0.73006 1.2085 0.0611 0 0.31581-0.31232 0.56592-0.69404zm-6.7301-0.5365c-3.6006-2.4248-8.5429-4.1925-12.395-4.4332-2.1478-0.13423-1.9563-0.0736 1.2686 0.40151 3.5104 0.51718 8.5814 2.4816 11.112 4.3047 0.50932 0.36686 1.0435 0.67285 1.1871 0.67999 0.14358 7e-3 -0.38441-0.4217-1.1733-0.95298zm2.8966-0.75917c0-0.35399-5.9296-3.8311-6.5332-3.8311-0.11046 0 0.68926 0.5079 1.7771 1.1287 1.0879 0.62076 2.5138 1.5084 3.1686 1.9726 1.1524 0.81678 1.5875 1.0168 1.5875 0.72988zm6.35-2.5082c1.2781-1.8821 1.2358-2.1364-0.055-0.33073-1.1285 1.5786-1.3341 1.9182-1.161 1.9182 0.0759 0 0.62317-0.71437 1.2161-1.5875zm-17.005 0.36931c-0.0879-0.0879-0.31612-0.0973-0.50712-0.0209-0.21106 0.0845-0.14837 0.14716 0.15986 0.15986 0.27891 0.0115 0.43518-0.0511 0.34726-0.13897zm-1.0583-0.26458c-0.0879-0.0879-0.31612-0.0973-0.50712-0.0209-0.21106 0.0845-0.14837 0.14716 0.15985 0.15985 0.27892 0.0115 0.43519-0.0511 0.34727-0.13896zm-1.6481-0.36931c-0.43657-0.11109-1.2105-0.19917-1.7198-0.19574l-0.92604 6e-3 1.0583 0.1895c0.58208 0.10422 1.356 0.1923 1.7198 0.19573 0.58444 5e-3 0.56903-0.0173-0.13229-0.19573zm20.551-2.0505c0.91829-1.2733 2.1779-2.9402 2.7992-3.7042 1.2066-1.4838 1.3059-1.9593 0.11422-0.54701-1.0963 1.2992-4.2717 5.5227-4.5668 6.0741-0.58569 1.0944 0.074 0.36702 1.6534-1.8229zm-28.952 1.8681c-0.25466-0.0666-0.67138-0.0666-0.92604 0s-0.0463 0.121 0.46302 0.121c0.50933 0 0.71769-0.0545 0.46302-0.121zm5.163-0.26844c-0.32542-0.0628-0.92074-0.0644-1.3229-4e-3 -0.40218 0.0608-0.13593 0.1122 0.59168 0.11418 0.7276 2e-3 1.0567-0.0478 0.73124-0.11057zm9.4552-0.87209c-0.21828-0.14106-0.51593-0.25648-0.66145-0.25648s-0.086 0.11542 0.13229 0.25648c0.21828 0.14107 0.51594 0.25648 0.66146 0.25648s0.086-0.11541-0.1323-0.25648zm12.469-0.46302c0.32911-0.41964 0.31975-0.429-0.0999-0.0999-0.25467 0.19972-0.46303 0.40808-0.46303 0.46302 0 0.21776 0.21728 0.0776 0.56292-0.36312zm3.175-1.0583c0.32911-0.41965 0.31975-0.42901-0.0999-0.0999-0.25467 0.19972-0.46303 0.40808-0.46303 0.46302 0 0.21776 0.21728 0.0776 0.56292-0.36313zm-3.175-0.79375c0.32911-0.41965 0.31975-0.42901-0.0999-0.0999-0.25467 0.19972-0.46303 0.40808-0.46303 0.46302 0 0.21776 0.21728 0.0776 0.56292-0.36313zm3.3062 21.487c-0.25532-0.66535-0.18-0.83702 0.1319-0.30066 0.15444 0.26558 0.22506 0.5386 0.15693 0.60673-0.0681 0.0681-0.19809-0.0696-0.28883-0.30607zm-1.4234-6.4059c-0.75251-1.1278-1.5656-2.3184-1.807-2.6458-0.24132-0.32742-0.36856-0.59531-0.28276-0.59531 0.22651 0 2.0992 2.5692 2.9411 4.0349 1.0803 1.8808 0.691 1.5178-0.85141-0.79375z" stroke-width=".26458"/>
 </g>
</svg>
