<?xml version="1.0" encoding="UTF-8"?>
<svg width="135.45mm" height="114.63mm" version="1.1" viewBox="0 0 135.45 114.63" xmlns="http://www.w3.org/2000/svg">
 <g transform="translate(327.78 -39.39)">
  <path d="m-319.98 153.72c-5.6178-1.783-8.9335-7.6868-7.4456-13.257 0.54477-2.0394 1.4318-3.5588 2.9289-5.0171 1.6948-1.6508 3.7256-2.6849 5.9719-3.0408 2.381-0.37725 114.56-0.37725 116.95 0 2.2463 0.35591 4.2771 1.39 5.9719 3.0408 5.4963 5.3538 3.8404 14.472-3.2295 17.784l-1.5518 0.72688-59.267 0.0496c-47.277 0.0396-59.481-0.0183-60.325-0.28626zm1.5328-46.2c-3.0261-0.44214-6.6996-2.9724-7.988-5.5021-2.3098-4.5351-1.5852-9.5806 1.8727-13.038 1.6393-1.6393 4.027-2.8288 6.3537-3.1652 2.2122-0.3199 114.1-0.3199 116.31 0 3.291 0.47589 6.8869 2.8877 8.2264 5.5175 2.3098 4.5351 1.5852 9.5806-1.8727 13.038-1.6393 1.6393-4.027 2.8288-6.3537 3.1652-2.0158 0.2915-114.55 0.27663-116.55-0.0154zm-0.34217-46.6c-1.9933-0.32678-4.0755-1.4274-5.7073-3.0169-5.4963-5.3538-3.8404-14.472 3.2295-17.784l1.5518-0.72688h119.33l1.5518 0.72688c5.8536 2.742 8.1538 9.495 5.2015 15.27-0.80758 1.5798-3.0106 3.6823-4.7822 4.5642-0.79301 0.39473-2.2157 0.84031-3.1616 0.99019-2.1836 0.34598-115.09 0.32292-117.21-0.024z" stroke-width=".26458"/>
 </g>
</svg>
